<svg class="jss201" width="24" height="24" viewBox="0 0 24 24" fill="none" xmlns="http://www.w3.org/2000/svg"><path clip-rule="evenodd" d="M18.805 8.818L6.59 8.837 5.71 6.97l-1.835-.085a.869.869 0 0 0-.73.42.982.982 0 0 0-.076.877l1.654 3.96c.277.685.912 1.13 1.614 1.13H9.57l-1.987 4.386a.97.97 0 0 0 .031.901.86.86 0 0 0 .743.441h1.68a.86.86 0 0 0 .674-.335l4.128-5.392h3.966a2.026 2.026 0 0 0 1.538-.603c.415-.414.652-.99.657-1.594a2.338 2.338 0 0 0-.65-1.618 2.075 2.075 0 0 0-1.546-.64z" stroke="#fff" stroke-linecap="round" stroke-linejoin="round"></path><path d="M14.975 8.783l-2.394-3.41A.864.864 0 0 0 11.88 5h-1.655a.87.87 0 0 0-.746.443.983.983 0 0 0-.04.905l1.152 2.47" stroke="#fff" stroke-linecap="round" stroke-linejoin="round"></path></svg>
