<svg class="jss201" width="24" height="24" viewBox="0 0 24 24" fill="none" xmlns="http://www.w3.org/2000/svg"><path d="M5 12v-1.8C5 9.537 5.567 9 6.266 9h4.468c.7 0 1.266.537 1.266 1.2V12M12 12v-1.8c0-.663.545-1.2 1.217-1.2h4.565C18.456 9 19 9.537 19 10.2V12" stroke="#FFF" stroke-linecap="round" stroke-linejoin="round"></path><path clip-rule="evenodd" d="M5.362 12h13.276c.752 0 1.362.663 1.362 1.482V17H4v-3.518C4 12.663 4.61 12 5.362 12z" stroke="#FFF" stroke-linecap="round" stroke-linejoin="round"></path><path d="M4 16v2.333M20 16v2.333M19.5 12V7.09c0-.602-.49-1.09-1.095-1.09H5.748c-.605 0-1.095.488-1.095 1.09V12" stroke="#FFF" stroke-linecap="round" stroke-linejoin="round"></path></svg>
