<svg width="24" height="24" fill="none" xmlns="http://www.w3.org/2000/svg"><path d="M6 16.8h-.6A2.4 2.4 0 0 1 3 14.4V12a2.4 2.4 0 0 1 2.4-2.401H6a.6.6 0 0 1 .6.6v6a.6.6 0 0 1-.6.6v0zm12.6 0H18a.6.6 0 0 1-.6-.6v-6a.6.6 0 0 1 .6-.601h.6a2.4 2.4 0 0 1 2.4 2.4v2.4a2.4 2.4 0 0 1-2.4 2.4z" stroke="#fff" stroke-linecap="round" stroke-linejoin="round"/><path d="M5.401 9.6a6.6 6.6 0 0 1 6.6-6.6v0A6.6 6.6 0 0 1 18.6 9.6m-4.2 10.2h1.8a2.4 2.4 0 0 0 2.4-2.4v0-.6" stroke="#fff" stroke-linecap="round" stroke-linejoin="round"/><path d="M13.201 21h-1.2a1.2 1.2 0 0 1 0-2.4h1.2a1.2 1.2 0 0 1 1.2 1.2v0a1.2 1.2 0 0 1-1.2 1.2z" stroke="#fff" stroke-linecap="round" stroke-linejoin="round"/></svg>
