<svg class="jss201" width="24" height="24" viewBox="0 0 24 24" fill="none" xmlns="http://www.w3.org/2000/svg"><path d="M5 19c1.173.145 1.349-.247 2.2-1.067a3.233 3.233 0 0 0 4.8 0 3.233 3.233 0 0 0 4.8 0c.851.82 1.027 1.212 2.2 1.067M19.452 17.294c.3-.62.486-1.292.546-1.979a.533.533 0 0 0-.531-.582H4.533a.533.533 0 0 0-.53.582c.053.604.201 1.196.44 1.753" stroke="#FFF" stroke-linecap="round" stroke-linejoin="round"></path><path clip-rule="evenodd" d="M17.45 11.4a1.067 1.067 0 0 0-1.058-.933H7.608c-.538 0-.991.4-1.058.934l-.417 3.332h11.734l-.417-3.332z" stroke="#FFF" stroke-linecap="round" stroke-linejoin="round"></path><path d="M8.267 12.6h1.066M14.667 12.6h1.066M11.467 12.6h1.066" stroke="#FFF" stroke-linecap="round" stroke-linejoin="round"></path><path clip-rule="evenodd" d="M8.622 7.267h1.422c.197 0 .356.159.356.355v2.845H8.267V7.622c0-.196.159-.355.355-.355zM15.733 10.467H13.6V7.622c0-.196.16-.355.356-.355h1.422c.196 0 .355.159.355.355v2.845z" stroke="#FFF" stroke-linecap="round" stroke-linejoin="round"></path><path d="M9.333 6.133c0-1.066 2.134-1.066 2.134-2.133M14.667 6.133C14.667 5.067 16.8 5.067 16.8 4" stroke="#FFF" stroke-linecap="round" stroke-linejoin="round"></path></svg>
