<svg class="jss201" width="24" height="24" viewBox="0 0 24 24" fill="none" xmlns="http://www.w3.org/2000/svg"><path clip-rule="evenodd" d="M17.933 11.467H6.067v7.466c0 .59.477 1.067 1.066 1.067h9.734c.589 0 1.066-.478 1.066-1.067v-7.466z" stroke="#FFF" stroke-linecap="round" stroke-linejoin="round"></path><path clip-rule="evenodd" d="M17.933 8.267H6.067C5.477 8.267 5 8.744 5 9.333v1.6c0 .295.239.534.533.534h12.934a.533.533 0 0 0 .533-.534v-1.6c0-.589-.478-1.066-1.067-1.066z" stroke="#FFF" stroke-linecap="round" stroke-linejoin="round"></path><path d="M11.467 8.267c-2.357 0-4.8-1.91-4.8-4.267M6.667 4c2.356 0 4.8 1.91 4.8 4.267M12.533 8.267c2.357 0 4.8-1.91 4.8-4.267M17.333 4c-2.356 0-4.8 1.91-4.8 4.267" stroke="#FFF" stroke-linecap="round" stroke-linejoin="round"></path><path clip-rule="evenodd" d="M10.4 8.267h3.2V20h-3.2V8.267z" stroke="#FFF" stroke-linecap="round" stroke-linejoin="round"></path></svg>
