<svg width="24" height="24" fill="none" xmlns="http://www.w3.org/2000/svg"><path d="M18.933 12.533v5.4C18.933 19 18 20 16.867 20H7.133C6 20 5.067 19 5.067 17.933v-5.4" stroke="#fff" stroke-linecap="round" stroke-linejoin="round"/><path fill-rule="evenodd" clip-rule="evenodd" d="M17.505 4H6.495a.534.534 0 0 0-.521.417L4 8.8a1.6 1.6 0 1 0 3.2 0 1.6 1.6 0 1 0 3.2 0 1.6 1.6 0 1 0 3.2 0 1.6 1.6 0 1 0 3.2 0 1.6 1.6 0 1 0 3.2 0l-1.974-4.383a.533.533 0 0 0-.52-.417z" stroke="#fff" stroke-linecap="round" stroke-linejoin="round"/><path d="M5.067 15.733h9.066m0 4.267v-7.467" stroke="#fff" stroke-linecap="round" stroke-linejoin="round"/></svg>
