<svg width="24" height="24" fill="none" xmlns="http://www.w3.org/2000/svg"><path fill-rule="evenodd" clip-rule="evenodd" d="M11.8 12.4a4.2 4.2 0 1 0 0-8.4 4.2 4.2 0 0 0 0 8.4z" stroke="#fff" stroke-linecap="round" stroke-linejoin="round"/><path d="M4.54 19.303a.5.5 0 0 0 .92.394l-.92-.394zm14 .394a.5.5 0 0 0 .92-.394l-.92.394zm-13.08 0C6.894 16.351 9.48 14.75 12 14.75c2.52 0 5.106 1.6 6.54 4.947l.92-.394c-1.566-3.654-4.48-5.553-7.46-5.553-2.98 0-5.894 1.9-7.46 5.553l.92.394z" fill="#fff"/></svg>
